HIERARCHY
ROOT pelvis
{
  OFFSET 0 100 0
  CHANNELS 6 Xposition Yposition Zposition Zrotation Xrotation Yrotation
  JOINT pelvis_right_femur
  {
    OFFSET -10.78128 -3.44521 -0.5502486
    CHANNELS 3 Zrotation Xrotation Yrotation
    JOINT right_femur_tibia
    {
      OFFSET -0.8047443 -44.0398 -0.1307829
      CHANNELS 3 Zrotation Xrotation Yrotation
      JOINT right_tibia_foot
      {
        OFFSET 3.006224 -47.83518 -5
        CHANNELS 3 Zrotation Xrotation Yrotation
        End Site
        {
          OFFSET 0 -5 15
        }
      }
    }
  }
  JOINT pelvis_left_femur
  {
    OFFSET 10.78128 -3.44521 -0.5502486
    CHANNELS 3 Zrotation Xrotation Yrotation
    JOINT left_femur_tibia
    {
      OFFSET 0.8047443 -44.0398 -0.1307829
      CHANNELS 3 Zrotation Xrotation Yrotation
      JOINT left_tibia_foot
      {
        OFFSET -4.370144 -48.10324 -4.275266
        CHANNELS 3 Zrotation Xrotation Yrotation
        End Site
        {
          OFFSET 0 -5 15
        }
      }
    }
  }
  JOINT pelvis_spine1
  {
    OFFSET 0 6.468898 -3.129235
    CHANNELS 3 Zrotation Xrotation Yrotation
    JOINT spine1
    {
      OFFSET 0 23.15396 4.99043
      CHANNELS 3 Zrotation Xrotation Yrotation
      JOINT spine2
      {
        OFFSET 0 20.79997 -5.064912
        CHANNELS 3 Zrotation Xrotation Yrotation
        JOINT neck
        {
          OFFSET 0 14.38658 9.616178
          CHANNELS 3 Zrotation Xrotation Yrotation
          End Site
          {
            OFFSET 0 20 0
          }
        }
      }
      JOINT right_manubrium
      {
        OFFSET -5.722621 16.35077 3.967754
        CHANNELS 3 Zrotation Xrotation Yrotation
        JOINT right_clavicle
        {
          OFFSET -13.16364 1.694482 -4.693211
          CHANNELS 3 Zrotation Xrotation Yrotation
          JOINT right_humerus
          {
            OFFSET -28.5034 -0.3100689 -2.792744
            CHANNELS 3 Zrotation Xrotation Yrotation
            JOINT right_radius
            {
              OFFSET -25.15693 0.02248979 -1.271978
              CHANNELS 3 Zrotation Xrotation Yrotation
              End Site
              {
                OFFSET -15 0 0
              }
            }
          }
        }
      }
      JOINT left_manubrium
      {
        OFFSET 5.722621 16.35077 3.967754
        CHANNELS 3 Zrotation Xrotation Yrotation
        JOINT left_clavicle
        {
          OFFSET 13.16364 1.694482 -4.693211
          CHANNELS 3 Zrotation Xrotation Yrotation
          JOINT left_humerus
          {
            OFFSET 29.39168 -1.063119 -2.237045
            CHANNELS 3 Zrotation Xrotation Yrotation
            JOINT left_radius
            {
              OFFSET 24.59957 -0.9528479 0.9047498
              CHANNELS 3 Zrotation Xrotation Yrotation
              End Site
              {
                OFFSET 15 -0 -0
              }
            }
          }
        }
      }
    }
  }
}
MOTION
Frames: 17
Frame Time: 0.0416666666667
0 103.5113 0 0.6356944 0.6322945 0.377349 3.929861 -14.99306 7.434668 -0 38.80916 -0 -6.304158 -14.05409 -2.591796 -7.25201 6.621727 -20.63308 -0 7.390103 -0 10.38102 -14.73107 23.95035 -3.757732 -4.633269 5.182606 2.750487 10.7173 -8.603793 0.6589374 20.92504 6.55337 2.521957 -25.16112 8.742201 6.484355 -21.46687 12.26023 86.22893 37.4187 -19.09118 -0 0 17.14213 -8.488658 10.85815 5.956695 4.641613 -20.42456 -1.708041 -93.03007 24.14393 25.11589 0 0 -16.63133 8.516699 16.22449 4.080901
0.5461252 103.7737 2.333688 0.5189504 1.295268 0.7798718 4.157976 -17.55344 7.30271 -0 37.75409 -0 -6.110738 -12.93747 -2.21879 -7.345283 8.104733 -20.88272 -0 6.479795 -0 10.13561 -16.00681 23.83105 -3.758495 -4.456156 4.992479 2.869816 10.42439 -8.63935 0.6196994 20.81009 6.945799 2.866521 -25.63584 8.946797 6.606133 -21.01973 12.23657 86.33816 37.603 -19.73124 -0 0 16.49469 -8.331392 10.36318 5.813203 4.973699 -20.55545 -1.667728 -92.93411 24.53962 24.42819 0 0 -17.651 8.472349 16.11915 4.196444
1.10849 103.9231 4.899 0.2618654 2.221023 1.199032 4.57322 -20.87108 6.83602 -0 35.079 -0 -6.102992 -10.80856 -1.512959 -7.338977 9.500743 -20.59777 -0 6.202265 -0 9.84803 -17.32146 23.27222 -3.622913 -4.232471 4.812187 3.040418 10.30562 -8.747397 0.5061939 20.53348 7.469425 3.349835 -26.35954 9.121978 6.636743 -20.56209 12.33217 86.69122 37.6709 -20.68041 -0 0 15.3957 -8.589042 9.94772 5.892611 5.438594 -21.09736 -1.737225 -92.46392 24.27119 23.37912 0 0 -19.39515 9.090445 15.81766 3.576689
1.671486 103.8949 7.692501 -0.0245024 2.949427 1.61952 4.966328 -23.88316 6.396949 -0 31.9479 -0 -6.138524 -9.027773 -0.9883172 -7.194868 10.70087 -20.17269 -0 6.163037 -0 9.179791 -18.52362 22.53085 -3.440522 -3.884658 4.582398 3.207135 10.12263 -8.820356 0.4267906 20.32085 7.900447 3.761445 -26.90942 9.246105 6.596549 -20.06865 12.37945 86.96214 37.56975 -21.45274 -0 0 14.37341 -8.885636 9.600464 6.01616 5.849794 -21.53721 -1.833905 -92.005 24.19591 22.27313 0 0 -20.97118 9.334011 15.47451 3.3507
2.201292 103.6742 10.70922 -0.3395881 3.379228 2.009069 5.378483 -26.45259 6.034872 -0 28.41577 -0 -6.248966 -7.660063 -0.7318361 -6.88222 11.70787 -19.59401 -0 7.037025 -0 7.934951 -19.46544 21.51819 -3.18815 -3.367611 4.278585 3.374484 9.858676 -8.844509 0.3970089 20.22265 8.207539 4.080639 -27.22618 9.297167 6.491258 -19.46409 12.366 87.1701 37.27691 -22.05721 -0 0 13.34816 -9.17055 9.321684 6.140488 6.158467 -21.82482 -1.969351 -91.57115 24.43102 21.0683 0 0 -22.2739 9.063923 15.09533 3.674733
2.668002 103.294 13.95002 -0.6548589 3.481677 2.336529 5.795426 -28.36668 5.739469 -0 24.86252 -0 -6.466497 -6.612209 -0.716437 -6.450437 12.43686 -18.86326 -0 9.059221 -0 6.277104 -19.9725 20.2963 -2.876878 -2.751034 3.936062 3.527269 9.59183 -8.829011 0.4082135 20.23803 8.378831 4.294515 -27.31737 9.264973 6.327211 -18.79936 12.31844 87.3717 36.81501 -22.50925 -0 0 12.30812 -9.466863 9.145144 6.266899 6.335415 -21.99807 -2.150858 -91.14938 24.82229 19.84405 0 0 -23.23523 8.469458 14.7024 4.341603
3.052716 102.8299 17.42178 -0.9350017 3.298174 2.579343 6.186694 -29.47238 5.495511 -0 21.67772 -0 -6.788823 -5.794072 -0.8748123 -5.978236 12.79858 -18.00303 -0 12.25662 -0 4.477592 -19.9288 19.00235 -2.539596 -2.129847 3.611552 3.651418 9.395518 -8.789968 0.4434467 20.34416 8.423702 4.406822 -27.22007 9.15387 6.135258 -18.13491 12.26712 87.60136 36.28019 -22.83252 -0 0 11.26085 -9.787199 9.092626 6.394491 6.375902 -22.10664 -2.359106 -90.72231 25.17795 18.68518 0 0 -23.84451 7.806464 14.30449 5.072187
3.349449 102.3836 21.13348 -1.151816 2.924646 2.726776 6.528083 -29.72408 5.301595 -0 19.1125 -0 -7.172816 -5.166409 -1.129193 -5.540587 12.72012 -17.04685 -0 16.50666 -0 2.802684 -19.30751 17.78619 -2.217188 -1.587921 3.366203 3.74059 9.313399 -8.745734 0.4831852 20.50301 8.367879 4.435678 -26.98572 8.977984 5.966367 -17.51543 12.23679 87.85586 35.8176 -23.05484 -0 0 10.23085 -10.12172 9.171109 6.515637 6.297298 -22.19213 -2.554482 -90.2746 25.34131 17.65262 0 0 -24.15311 7.297285 13.89418 5.625215
3.561329 102.0591 25.08951 -1.29204 2.460316 2.776654 6.814635 -29.16563 5.174867 -0 17.23081 -0 -7.555797 -4.752881 -1.424205 -5.1786 12.1651 -16.03303 -0 21.61714 -0 1.411975 -18.16087 16.75269 -1.940206 -1.171325 3.244136 3.795563 9.350805 -8.707611 0.5143483 20.67907 8.23866 4.402441 -26.65778 8.753781 5.866855 -16.96206 12.23889 88.10233 35.54906 -23.19569 -0 0 9.258192 -10.44329 9.371955 6.617016 6.125841 -22.2706 -2.697671 -89.80874 25.24816 16.78116 0 0 -24.23362 7.047028 13.45786 5.888402
3.693638 101.9439 29.28539 -1.357731 1.956844 2.727742 7.057034 -27.86735 5.136493 -0 15.94763 -0 -7.888374 -4.61274 -1.742865 -4.886732 11.13353 -14.99578 -0 27.40084 -0 0.3178301 -16.57908 15.93923 -1.716112 -0.8801237 3.258641 3.818748 9.482931 -8.671509 0.5366882 20.85634 8.050816 4.320807 -26.25493 8.493671 5.851505 -16.4787 12.2696 88.29836 35.50563 -23.25041 -0 0 8.392666 -10.7269 9.672785 6.687511 5.882178 -22.3269 -2.769618 -89.35479 24.93951 16.09219 0 0 -24.12692 7.017845 12.98938 5.905515
3.748641 102.0973 33.70743 -1.360736 1.406672 2.573859 7.26611 -25.86282 5.194001 -0 15.10748 -0 -8.148508 -4.810511 -2.096925 -4.622266 9.630147 -13.95547 -0 33.67893 -0 -0.5746738 -14.65191 15.33615 -1.531617 -0.6808645 3.39702 3.808621 9.67154 -8.617008 0.5612944 21.04005 7.802772 4.193065 -25.76978 8.203512 5.897624 -16.06813 12.31491 88.39982 35.62124 -23.17565 -0 0 7.695713 -10.96859 10.04505 6.729853 5.575536 -22.32178 -2.775019 -88.96543 24.5243 15.61159 0 0 -23.81638 7.070975 12.49606 5.829571
3.725528 102.5454 38.33366 -1.315984 0.7721354 2.303407 7.437451 -23.12389 5.334107 -0 14.53799 -0 -8.328286 -5.411371 -2.502357 -4.324176 7.620147 -12.91375 -0 40.19005 -0 -1.389227 -12.46137 14.92404 -1.366385 -0.5281843 3.638526 3.757427 9.877864 -8.513216 0.603038 21.24308 7.483171 4.013331 -25.18076 7.884205 5.959649 -15.75051 12.35819 88.34868 35.77984 -22.88019 -0 0 7.256931 -11.19419 10.46387 6.771315 5.209317 -22.20486 -2.729929 -88.70272 24.12311 15.3848 0 0 -23.24066 7.036629 11.99184 5.846129
3.625646 103.2696 43.13368 -1.236952 0.02671063 1.903626 7.541712 -19.57856 5.522257 -0 14.05238 -0 -8.41034 -6.49463 -2.954655 -3.926644 5.003652 -11.85535 -0 46.42699 -0 -2.21111 -10.10957 14.70119 -1.207454 -0.3827946 3.970294 3.651427 10.06606 -8.325756 0.6728217 21.46872 7.080905 3.772654 -24.46747 7.535933 5.984438 -15.57986 12.38465 88.05597 35.8636 -22.22105 -0 0 7.218211 -11.46211 10.91326 6.872346 4.793861 -21.92641 -2.646833 -88.62814 23.82517 15.48614 0 0 -22.32624 6.768431 11.48599 6.113164
3.461105 104.186 48.06864 -1.133153 -0.8146553 1.367598 7.521803 -15.16077 5.70211 -0 13.42105 -0 -8.352222 -8.160484 -3.411166 -3.364605 1.629664 -10.7534 -0 51.46704 -0 -3.049861 -7.764662 14.69028 -1.058522 -0.2211408 4.391626 3.472592 10.19933 -8.02234 0.7727976 21.70016 6.593888 3.462715 -23.62319 7.163517 5.915338 -15.65302 12.38071 87.39977 35.7706 -21.01036 -0 0 7.786167 -11.86484 11.38327 7.131812 4.360247 -21.4474 -2.526926 -88.79626 23.66766 16.01488 0 0 -21.02137 6.172708 10.97766 6.727603
3.263199 105.1201 53.09507 -1.007908 -1.682967 0.7023229 7.302168 -9.888026 5.798963 -0 12.35717 -0 -8.087321 -10.50658 -3.784845 -2.579792 -2.635246 -9.575254 -0 53.94088 -0 -3.828446 -5.691369 14.92379 -0.9432959 -0.0389302 4.905839 3.203482 10.23538 -7.580426 0.8943487 21.90082 6.036096 3.079035 -22.66367 6.781451 5.69176 -16.0967 12.32978 86.25796 35.41249 -19.05627 -0 0 9.20031 -12.52052 11.86013 7.678033 3.96847 -20.75262 -2.361003 -89.24031 23.62959 17.06161 0 0 -19.33094 5.228794 10.45954 7.701774
3.084349 105.8049 58.17593 -0.857456 -2.466909 -0.06567282 6.820935 -3.959202 5.739068 -0 10.57697 -0 -7.547615 -13.55052 -3.959498 -1.537849 -7.774883 -8.290517 -0 52.39473 -0 -4.403525 -4.212968 15.4115 -0.8990565 0.1489349 5.504016 2.838085 10.13317 -7.001823 1.019198 22.027 5.442123 2.627007 -21.63267 6.4157 5.260168 -17.01317 12.21056 84.59189 34.7191 -16.27016 -0 0 11.61965 -13.53554 12.31457 8.624656 3.698957 -19.87089 -2.139164 -89.94099 23.63618 18.63436 0 0 -17.35472 4.011625 9.928715 8.940276
2.987136 105.9383 63.29642 -0.6782838 -3.054757 -0.8936769 6.087414 2.172756 5.489352 -0 7.97227 -0 -6.706236 -17.09346 -3.833736 -0.2566705 -13.48093 -6.883496 -0 46.20341 -0 -4.633803 -3.562211 16.101 -0.9523266 0.3136389 6.152658 2.396054 9.885473 -6.331073 1.124561 22.04589 4.866436 2.133657 -20.60571 6.096779 4.608816 -18.39069 12.01043 82.55107 33.67389 -12.82302 -0 0 14.94361 -14.9359 12.70282 9.98753 3.616781 -18.89689 -1.870208 -90.79454 23.5752 20.58251 0 0 -15.31184 2.701935 9.395771 10.23761
